<svg version="1.1" xmlns="http://www.w3.org/2000/svg" viewBox="-2644.992013549804 -1086.4640380859375 13043.712872314452 2723.840020751953"><desc>Created with Snap</desc><defs></defs><g><rect x="-2644.992013549804" y="-1086.4640380859375" width="13043.712872314452" height="2723.840020751953" fill="#000000" style=""></rect><g transform="matrix(65.92,0,0,65.92,-2337.792,-779.264)"><g display="none"><rect x="-69.333" y="-18.667" display="inline" fill="#ffffff" width="473.333" height="236" style=""></rect></g><g display="none"><g display="inline"><g><polygon fill="#ffffff" points="32,31.952 0,31.952 0,0.048    " style=""></polygon></g><g><polygon fill="#ffffff" points="23.347,23.325 8.653,23.325 8.653,8.675    " style=""></polygon></g></g><g display="inline"><g><polygon fill="#ffffff" points="0,0.048 32,0.048 32,31.952    " style=""></polygon></g><g><polygon fill="#ffffff" points="8.653,8.675 23.347,8.675 23.347,23.325    " style=""></polygon></g></g></g><g display="none"><g display="inline"><rect x="8.675" y="8.675" fill="#ffffff" stroke="#ffffff" stroke-miterlimit="10" width="14.65" height="14.65" style=""></rect><rect x="0.5" y="0.326" fill="#ffffff" stroke="#ffffff" stroke-miterlimit="10" width="31" height="31.348" style=""></rect><line fill="#ffffff" stroke="#ffffff" stroke-miterlimit="10" x1="0.413" y1="0.413" x2="31.587" y2="31.587" style=""></line></g></g><g display="none"><rect x="0.5" y="0.326" display="inline" fill="#ffffff" stroke="#ffffff" stroke-miterlimit="10" width="31" height="31.348" style=""></rect><rect x="8.675" y="8.675" display="inline" fill="#ffffff" stroke="#ffffff" stroke-miterlimit="10" width="14.65" height="14.65" style=""></rect><line display="inline" fill="#ffffff" stroke="#ffffff" stroke-miterlimit="10" x1="0.413" y1="0.413" x2="31.587" y2="31.587" style=""></line></g><g><g><polygon points="9.382,8.675 23.325,8.675 23.325,22.618 32,31.293 32,0 0.707,0   " fill="#ffffff" style=""></polygon><polygon points="22.618,23.325 8.675,23.325 8.675,9.382 0,0.707 0,32 31.293,32   " fill="#ffffff" style=""></polygon></g></g><desc>Created with Snap</desc><defs></defs></g><g><g transform="matrix(1.024,0,0,-1.024,0,0)"><path d="M452 623L168 623L168 390L422 390L422 315L168 315L168 75L452 75L452 0L77 0L77 698L452 698L452 623ZM844 473L701 473L701 150Q701 110 718 93Q735 77 777 77L844 77L844 0L762 0Q686 0 648 35Q610 70 610 150L610 473L539 473L539 548L610 548L610 686L701 686L701 548L844 548L844 473ZM1454 295Q1454 269 1451 240L1013 240Q1018 159 1068 113Q1119 68 1191 68Q1250 68 1289 95Q1329 123 1345 169L1443 169Q1421 90 1355 40Q1289 -9 1191 -9Q1113 -9 1051 26Q990 61 955 125Q920 190 920 275Q920 360 954 424Q988 488 1049 522Q1111 557 1191 557Q1269 557 1329 523Q1389 489 1421 429Q1454 370 1454 295ZM1360 314Q1360 366 1337 403Q1314 441 1274 460Q1235 480 1187 480Q1118 480 1069 436Q1021 392 1014 314L1360 314ZM1665 459Q1689 506 1733 532Q1778 558 1842 558L1842 464L1818 464Q1665 464 1665 298L1665 0L1574 0L1574 548L1665 548L1665 459ZM2214 558Q2314 558 2376 497Q2438 437 2438 323L2438 0L2348 0L2348 310Q2348 392 2307 435Q2266 479 2195 479Q2123 479 2080 434Q2038 389 2038 303L2038 0L1947 0L1947 548L2038 548L2038 470Q2065 512 2111 535Q2158 558 2214 558ZM2553 276Q2553 360 2587 423Q2621 487 2680 522Q2740 557 2813 557Q2885 557 2938 526Q2991 495 3017 448L3017 548L3109 548L3109 0L3017 0L3017 102Q2990 54 2936 22Q2883 -9 2812 -9Q2739 -9 2680 27Q2621 63 2587 128Q2553 193 2553 276ZM3017 275Q3017 337 2992 383Q2967 429 2924 453Q2882 478 2831 478Q2780 478 2738 454Q2696 430 2671 384Q2646 338 2646 276Q2646 213 2671 166Q2696 120 2738 95Q2780 71 2831 71Q2882 71 2924 95Q2967 120 2992 166Q3017 213 3017 275ZM3263 740L3354 740L3354 0L3263 0L3263 740ZM3726 697Q3840 697 3923 654Q4007 612 4051 533Q4096 454 4096 347Q4096 240 4051 161Q4007 83 3923 41Q3840 0 3726 0L3509 0L3509 697L3726 697ZM3726 75Q3861 75 3932 146Q4003 218 4003 347Q4003 477 3931 550Q3860 623 3726 623L3600 623L3600 75L3726 75ZM4263 637Q4237 637 4219 655Q4201 673 4201 699Q4201 725 4219 743Q4237 761 4263 761Q4288 761 4305 743Q4323 725 4323 699Q4323 673 4305 655Q4288 637 4263 637ZM4216 548L4307 548L4307 0L4216 0L4216 548ZM4688 557Q4759 557 4812 526Q4866 495 4892 448L4892 548L4984 548L4984 -12Q4984 -87 4952 -146Q4920 -204 4860 -237Q4801 -270 4722 -270Q4614 -270 4542 -219Q4470 -168 4457 -80L4547 -80Q4562 -130 4609 -161Q4656 -191 4722 -191Q4797 -191 4844 -144Q4892 -97 4892 -12L4892 103Q4865 55 4812 23Q4759 -9 4688 -9Q4615 -9 4555 27Q4496 63 4462 128Q4428 193 4428 276Q4428 360 4462 423Q4496 487 4555 522Q4615 557 4688 557ZM4892 275Q4892 337 4867 383Q4842 429 4799 453Q4757 478 4706 478Q4655 478 4613 454Q4571 430 4546 384Q4521 338 4521 276Q4521 213 4546 166Q4571 120 4613 95Q4655 71 4706 71Q4757 71 4799 95Q4842 120 4867 166Q4892 213 4892 275ZM5185 637Q5159 637 5141 655Q5123 673 5123 699Q5123 725 5141 743Q5159 761 5185 761Q5210 761 5227 743Q5245 725 5245 699Q5245 673 5227 655Q5210 637 5185 637ZM5138 548L5229 548L5229 0L5138 0L5138 548ZM5638 473L5495 473L5495 150Q5495 110 5512 93Q5529 77 5571 77L5638 77L5638 0L5556 0Q5480 0 5442 35Q5404 70 5404 150L5404 473L5333 473L5333 548L5404 548L5404 686L5495 686L5495 548L5638 548L5638 473ZM5714 276Q5714 360 5748 423Q5782 487 5841 522Q5901 557 5974 557Q6046 557 6099 526Q6152 495 6178 448L6178 548L6270 548L6270 0L6178 0L6178 102Q6151 54 6097 22Q6044 -9 5973 -9Q5900 -9 5841 27Q5782 63 5748 128Q5714 193 5714 276ZM6178 275Q6178 337 6153 383Q6128 429 6085 453Q6043 478 5992 478Q5941 478 5899 454Q5857 430 5832 384Q5807 338 5807 276Q5807 213 5832 166Q5857 120 5899 95Q5941 71 5992 71Q6043 71 6085 95Q6128 120 6153 166Q6178 213 6178 275ZM6424 740L6515 740L6515 0L6424 0L6424 740ZM6717 637Q6691 637 6673 655Q6655 673 6655 699Q6655 725 6673 743Q6691 761 6717 761Q6742 761 6759 743Q6777 725 6777 699Q6777 673 6759 655Q6742 637 6717 637ZM6670 548L6761 548L6761 0L6670 0L6670 548ZM7110 -9Q7047 -9 6997 12Q6947 34 6918 72Q6889 111 6886 161L6980 161Q6984 120 7018 94Q7053 68 7109 68Q7161 68 7191 91Q7221 114 7221 149Q7221 185 7189 202Q7157 220 7090 237Q7029 253 6990 269Q6952 286 6924 318Q6897 351 6897 404Q6897 446 6922 481Q6947 516 6993 536Q7039 557 7098 557Q7189 557 7245 511Q7301 465 7305 385L7214 385Q7211 428 7179 454Q7148 480 7095 480Q7046 480 7017 459Q6988 438 6988 404Q6988 377 7005 359Q7023 342 7049 331Q7076 321 7123 308Q7182 292 7219 276Q7256 261 7282 230Q7309 199 7310 149Q7310 104 7285 68Q7260 32 7214 11Q7169 -9 7110 -9ZM7404 276Q7404 360 7438 423Q7472 487 7531 522Q7591 557 7664 557Q7736 557 7789 526Q7842 495 7868 448L7868 548L7960 548L7960 0L7868 0L7868 102Q7841 54 7787 22Q7734 -9 7663 -9Q7590 -9 7531 27Q7472 63 7438 128Q7404 193 7404 276ZM7868 275Q7868 337 7843 383Q7818 429 7775 453Q7733 478 7682 478Q7631 478 7589 454Q7547 430 7522 384Q7497 338 7497 276Q7497 213 7522 166Q7547 120 7589 95Q7631 71 7682 71Q7733 71 7775 95Q7818 120 7843 166Q7868 213 7868 275ZM8368 473L8225 473L8225 150Q8225 110 8242 93Q8259 77 8301 77L8368 77L8368 0L8286 0Q8210 0 8172 35Q8134 70 8134 150L8134 473L8063 473L8063 548L8134 548L8134 686L8225 686L8225 548L8368 548L8368 473ZM8525 637Q8499 637 8481 655Q8463 673 8463 699Q8463 725 8481 743Q8499 761 8525 761Q8550 761 8567 743Q8585 725 8585 699Q8585 673 8567 655Q8550 637 8525 637ZM8478 548L8569 548L8569 0L8478 0L8478 548ZM8963 -9Q8886 -9 8823 26Q8761 61 8725 125Q8690 190 8690 275Q8690 359 8726 423Q8763 488 8826 522Q8889 557 8967 557Q9045 557 9108 522Q9171 488 9207 424Q9244 360 9244 275Q9244 190 9206 125Q9169 61 9105 26Q9041 -9 8963 -9ZM8963 71Q9012 71 9055 94Q9098 117 9124 163Q9151 209 9151 275Q9151 341 9125 387Q9099 433 9057 455Q9015 478 8966 478Q8916 478 8874 455Q8833 433 8808 387Q8783 341 8783 275Q8783 208 8807 162Q8832 116 8873 93Q8914 71 8963 71ZM9631 558Q9731 558 9793 497Q9855 437 9855 323L9855 0L9765 0L9765 310Q9765 392 9724 435Q9683 479 9612 479Q9540 479 9497 434Q9455 389 9455 303L9455 0L9364 0L9364 548L9455 548L9455 470Q9482 512 9528 535Q9575 558 9631 558Z" fill="#ffffff" style=""></path></g></g><g transform="matrix(0.75,0,0,0.75,9.728,1152)"><g transform="matrix(1.024,0,0,-1.024,0,0)"><path d="M90 2L90 698Q125 702 176 705Q228 708 296 708Q425 708 493 660Q562 612 562 528Q562 472 533 434Q504 396 447 371Q515 347 550 305Q585 263 585 200Q585 104 510 48Q436 -8 292 -8Q231 -8 176 -6Q122 -3 90 2ZM299 71Q389 71 438 103Q488 135 488 196Q488 256 439 290Q390 324 299 324L185 324L185 77Q237 71 299 71ZM185 398L295 398Q374 398 420 430Q467 463 467 516Q467 573 421 602Q375 631 295 631Q262 631 235 629Q208 628 185 626L185 398ZM1131 223L767 223Q776 150 818 109Q860 68 929 68Q974 68 1010 77Q1046 87 1079 102L1100 25Q1064 8 1019 -2Q974 -12 918 -12Q862 -12 817 6Q772 25 740 59Q709 94 692 144Q675 195 675 260Q675 318 692 368Q709 418 740 454Q771 491 814 511Q857 532 910 532Q966 532 1008 513Q1050 494 1078 461Q1106 428 1120 384Q1134 340 1134 291Q1134 256 1131 223ZM908 454Q849 454 811 414Q774 374 766 296L1051 296Q1051 372 1013 413Q975 454 908 454ZM1267 -232Q1237 -232 1214 -226Q1192 -220 1179 -212L1199 -137Q1211 -144 1228 -149Q1246 -154 1269 -154Q1290 -154 1308 -148Q1327 -142 1344 -127Q1361 -112 1376 -86Q1392 -60 1407 -21L1430 39L1382 39L1179 496L1259 532L1453 99L1604 528L1687 496L1496 -26Q1474 -86 1449 -126Q1425 -165 1397 -189Q1369 -213 1336 -223Q1304 -232 1267 -232ZM2163 260Q2163 299 2150 334Q2138 369 2115 395Q2093 421 2062 436Q2032 452 1996 452Q1917 452 1873 400Q1829 348 1829 262Q1829 223 1841 187Q1854 152 1876 125Q1899 99 1929 83Q1960 68 1996 68Q2035 68 2066 82Q2097 96 2118 121Q2140 147 2151 182Q2163 217 2163 260ZM1737 260Q1737 323 1757 373Q1777 424 1811 459Q1846 494 1893 513Q1941 532 1996 532Q2050 532 2097 513Q2145 494 2180 459Q2215 424 2235 374Q2255 324 2255 262Q2255 200 2235 149Q2216 99 2181 63Q2146 27 2098 7Q2051 -12 1996 -12Q1940 -12 1892 8Q1845 28 1810 64Q1776 100 1756 150Q1737 200 1737 260ZM2462 520L2462 433Q2490 475 2533 503Q2577 532 2637 532Q2725 532 2768 479Q2812 426 2812 339L2812 0L2722 0L2722 329Q2722 386 2696 419Q2670 453 2622 453Q2599 453 2577 444Q2555 436 2534 421Q2514 406 2496 386Q2479 366 2465 344L2465 0L2375 0L2375 520L2462 520ZM3164 -12Q3116 -12 3073 7Q3031 26 2999 61Q2968 96 2950 145Q2932 195 2932 257Q2932 316 2950 366Q2969 417 3000 453Q3032 490 3074 511Q3116 532 3163 532Q3215 532 3252 511Q3290 490 3311 468L3311 740L3401 740L3401 126Q3401 88 3419 76Q3438 65 3460 65L3441 -5Q3346 -5 3325 71Q3302 39 3263 13Q3224 -12 3164 -12ZM3184 68Q3221 68 3254 85Q3288 103 3311 131L3311 389Q3292 413 3258 433Q3225 454 3183 454Q3147 454 3117 439Q3088 424 3067 398Q3046 372 3035 336Q3024 301 3024 260Q3024 218 3036 183Q3048 148 3069 122Q3091 97 3120 82Q3150 68 3184 68ZM3835 42L3873 117Q3899 94 3938 80Q3978 66 4023 66Q4079 66 4107 84Q4136 103 4136 132Q4136 147 4130 160Q4125 173 4110 185Q4096 197 4071 208Q4046 220 4006 234Q3932 259 3896 293Q3860 328 3860 389Q3860 419 3873 445Q3887 471 3912 490Q3938 510 3974 521Q4011 532 4058 532Q4109 532 4147 521Q4186 511 4217 495L4192 421Q4165 437 4130 447Q4096 457 4054 457Q4002 457 3975 436Q3948 415 3948 390Q3948 378 3952 368Q3957 358 3969 349Q3981 340 4001 331Q4021 322 4051 312Q4100 295 4134 277Q4168 260 4189 239Q4210 218 4219 193Q4228 169 4228 139Q4228 104 4213 76Q4198 48 4171 28Q4144 9 4105 -2Q4067 -12 4020 -12Q3960 -12 3913 3Q3866 18 3835 42ZM4832 65L4813 -5Q4765 -5 4737 14Q4709 33 4698 69Q4663 33 4617 10Q4572 -12 4518 -12Q4484 -12 4452 -2Q4421 9 4396 32Q4372 55 4357 92Q4343 129 4343 182L4343 520L4433 520L4433 194Q4433 133 4458 100Q4484 68 4535 68Q4577 68 4615 84Q4653 101 4683 129L4683 520L4773 520L4773 135Q4773 113 4778 99Q4783 86 4791 78Q4799 71 4810 68Q4821 65 4832 65ZM5311 501L5284 425Q5255 439 5230 445Q5205 452 5174 452Q5139 452 5108 439Q5078 426 5056 401Q5034 377 5021 342Q5009 307 5009 262Q5009 221 5020 186Q5032 151 5053 124Q5074 98 5103 83Q5132 68 5168 68Q5206 68 5233 76Q5260 84 5291 101L5319 25Q5287 8 5249 -2Q5211 -12 5162 -12Q5106 -12 5061 8Q5016 28 4984 64Q4952 100 4934 150Q4917 200 4917 260Q4917 316 4934 365Q4952 415 4985 452Q5018 489 5064 510Q5111 532 5169 532Q5214 532 5247 524Q5280 516 5311 501ZM5783 501L5756 425Q5727 439 5702 445Q5677 452 5646 452Q5611 452 5580 439Q5550 426 5528 401Q5506 377 5493 342Q5481 307 5481 262Q5481 221 5492 186Q5504 151 5525 124Q5546 98 5575 83Q5604 68 5640 68Q5678 68 5705 76Q5732 84 5763 101L5791 25Q5759 8 5721 -2Q5683 -12 5634 -12Q5578 -12 5533 8Q5488 28 5456 64Q5424 100 5406 150Q5389 200 5389 260Q5389 316 5406 365Q5424 415 5457 452Q5490 489 5536 510Q5583 532 5641 532Q5686 532 5719 524Q5752 516 5783 501ZM6317 223L5953 223Q5962 150 6004 109Q6046 68 6115 68Q6160 68 6196 77Q6232 87 6265 102L6286 25Q6250 8 6205 -2Q6160 -12 6104 -12Q6048 -12 6003 6Q5958 25 5926 59Q5895 94 5878 144Q5861 195 5861 260Q5861 318 5878 368Q5895 418 5926 454Q5957 491 6000 511Q6043 532 6096 532Q6152 532 6194 513Q6236 494 6264 461Q6292 428 6306 384Q6320 340 6320 291Q6320 256 6317 223ZM6094 454Q6035 454 5997 414Q5960 374 5952 296L6237 296Q6237 372 6199 413Q6161 454 6094 454ZM6395 42L6433 117Q6459 94 6498 80Q6538 66 6583 66Q6639 66 6667 84Q6696 103 6696 132Q6696 147 6690 160Q6685 173 6670 185Q6656 197 6631 208Q6606 220 6566 234Q6492 259 6456 293Q6420 328 6420 389Q6420 419 6433 445Q6447 471 6472 490Q6498 510 6534 521Q6571 532 6618 532Q6669 532 6707 521Q6746 511 6777 495L6752 421Q6725 437 6690 447Q6656 457 6614 457Q6562 457 6535 436Q6508 415 6508 390Q6508 378 6512 368Q6517 358 6529 349Q6541 340 6561 331Q6581 322 6611 312Q6660 295 6694 277Q6728 260 6749 239Q6770 218 6779 193Q6788 169 6788 139Q6788 104 6773 76Q6758 48 6731 28Q6704 9 6665 -2Q6627 -12 6580 -12Q6520 -12 6473 3Q6426 18 6395 42ZM6863 42L6901 117Q6927 94 6966 80Q7006 66 7051 66Q7107 66 7135 84Q7164 103 7164 132Q7164 147 7158 160Q7153 173 7138 185Q7124 197 7099 208Q7074 220 7034 234Q6960 259 6924 293Q6888 328 6888 389Q6888 419 6901 445Q6915 471 6940 490Q6966 510 7002 521Q7039 532 7086 532Q7137 532 7175 521Q7214 511 7245 495L7220 421Q7193 437 7158 447Q7124 457 7082 457Q7030 457 7003 436Q6976 415 6976 390Q6976 378 6980 368Q6985 358 6997 349Q7009 340 7029 331Q7049 322 7079 312Q7128 295 7162 277Q7196 260 7217 239Q7238 218 7247 193Q7256 169 7256 139Q7256 104 7241 76Q7226 48 7199 28Q7172 9 7133 -2Q7095 -12 7048 -12Q6988 -12 6941 3Q6894 18 6863 42Z" fill="#ffffff" style=""></path></g></g></g></svg>