<?xml version="1.0" encoding="iso-8859-1"?>
<!-- Generator: Adobe Illustrator 19.0.0, SVG Export Plug-In . SVG Version: 6.00 Build 0)  -->
<svg version="1.1" id="Layer_1" xmlns="http://www.w3.org/2000/svg" xmlns:xlink="http://www.w3.org/1999/xlink" x="0px" y="0px"
	 viewBox="0 0 511.999 511.999" style="enable-background:new 0 0 511.999 511.999;" xml:space="preserve">
<path style="fill:#0055B8;" d="M269.07,257.629c3.641-8.565-0.389-18.55-8.952-22.191L166.3,195.552
	c-8.564-3.641-18.549,0.388-22.19,8.952L38.862,452.073c-3.641,8.563,0.831,14.005,9.939,12.089l47.898-10.07
	c9.106-1.916,20.599,2.97,25.54,10.857l25.983,41.48c4.94,7.885,11.961,7.332,15.602-1.234L269.07,257.629z"/>
<path style="fill:#FF9E16;" d="M191.085,206.09L84.569,456.642l12.129-2.55c9.106-1.916,20.599,2.97,25.54,10.857l5.916,9.445
	L234.39,224.5L191.085,206.09z"/>
<path style="fill:#0055B8;" d="M242.93,257.629c-3.641-8.565,0.389-18.55,8.952-22.191l93.819-39.886
	c8.563-3.641,18.549,0.388,22.19,8.952l105.247,247.568c3.641,8.563-0.831,14.005-9.939,12.089l-47.898-10.07
	c-9.106-1.916-20.599,2.97-25.54,10.857l-25.983,41.48c-4.939,7.885-11.961,7.332-15.602-1.234L242.93,257.629z"/>
<path style="fill:#FF9E16;" d="M320.914,206.09l106.515,250.552l-12.128-2.55c-9.106-1.916-20.599,2.97-25.54,10.857l-5.916,9.445
	L277.609,224.5L320.914,206.09z"/>
<circle style="fill:#00A8E1;" cx="255.997" cy="188.93" r="188.93"/>
<path style="fill:#FFFFFF;" d="M256,338.894c-82.69,0-149.962-67.272-149.962-149.961c0-82.69,67.272-149.962,149.962-149.962
	s149.964,67.272,149.964,149.962C405.962,271.623,338.69,338.894,256,338.894z M256,55.777
	c-73.423,0-133.157,59.733-133.157,133.157c0,73.422,59.733,133.155,133.157,133.155s133.158-59.732,133.158-133.155
	C389.156,115.512,329.423,55.777,256,55.777z"/>
<circle style="fill:#0055B8;" cx="255.997" cy="188.93" r="97.944"/>
<g>
</g>
<g>
</g>
<g>
</g>
<g>
</g>
<g>
</g>
<g>
</g>
<g>
</g>
<g>
</g>
<g>
</g>
<g>
</g>
<g>
</g>
<g>
</g>
<g>
</g>
<g>
</g>
<g>
</g>
</svg>
